# xmcd
# 
# Track frame offsets:
#     150
#     17707
#     29879
#     43701
#     62296
#     81372
#     92483
#     102660
#     126130
#     143484
#     155132
#     160073
#     181612
#     200604
#     217094
#     227602
#     251955
#     271228
#     283358
#     309672
# 
# Disc length: 4408
# 
# Revision: 0
# Processed by: cddbd v1.5.2PL0 Copyright (c) Steve Scherf et al.
# Submitted via: fre:ac v1.0.31
# 
DISCID=25113614
DTITLE=HAIRSPRAY - HAIRSPRAY SOUNDTRACK TO THE MOTION PICTURE
DYEAR=2007
DGENRE=Soundtrack
TTITLE0=GOOD MORNING BALTIMORE
TTITLE1=THE NECEST KIDS IN TOWN
TTITLE2=IT TAKE TWO
TTITLE3=(THE LEGEND OF) MISS BALTIMORE CRABS
TTITLE4=I CAN HEAR THE BELLS
TTITLE5=LADIES' CHOICE
TTITLE6=THE NEW GIRL IN TOWN
TTITLE7=WELCOME TO THE 60's
TTITLE8=RUN AND TELL THAT
TTITLE9=BIG, BLONDE AND BEAUTIFUL
TTITLE10=BIG, BLONDE AND BEAUTIFUL (REPRISE)
TTITLE11=(YOU'RE) TIMELESS TO ME
TTITLE12=I KNOW WHERE I'VE BEEN
TTITLE13=WITHOUT LOVE
TTITLE14=(IT'S) HAIRSPRAY
TTITLE15=YOU CAN'T STOP THE BEAT
TTITLE16=COME SO FAR (GOT SO FAR TO GO)
TTITLE17=COOTIES
TTITLE18=MAMA, I'M A BIG GIRL NOW
TTITLE19=Data track
EXTD=
EXTT0=
EXTT1=
EXTT2=
EXTT3=
EXTT4=
EXTT5=
EXTT6=
EXTT7=
EXTT8=
EXTT9=
EXTT10=
EXTT11=
EXTT12=
EXTT13=
EXTT14=
EXTT15=
EXTT16=
EXTT17=
EXTT18=
EXTT19=
PLAYORDER=
